<?xml version="1.0" encoding="utf-8" ?>
<svg baseProfile="tiny" height="1024px" version="1.2" width="1024px" xmlns="http://www.w3.org/2000/svg" xmlns:ev="http://www.w3.org/2001/xml-events" xmlns:xlink="http://www.w3.org/1999/xlink"><defs /><path d="M 504,416 L 503,417 L 498,417 L 497,418 L 494,418 L 493,419 L 491,419 L 490,420 L 488,420 L 487,421 L 486,421 L 485,422 L 484,422 L 483,423 L 482,423 L 481,424 L 480,424 L 479,425 L 478,425 L 476,427 L 475,427 L 472,430 L 471,430 L 463,438 L 463,439 L 460,442 L 460,443 L 458,445 L 458,446 L 457,447 L 457,448 L 456,449 L 456,450 L 454,452 L 454,454 L 453,455 L 453,457 L 452,458 L 452,460 L 451,461 L 451,463 L 450,464 L 450,469 L 449,470 L 449,486 L 450,487 L 450,491 L 451,492 L 451,495 L 452,496 L 452,498 L 453,499 L 453,501 L 454,502 L 454,503 L 455,504 L 455,505 L 456,506 L 456,507 L 457,508 L 457,509 L 458,510 L 458,511 L 461,514 L 461,515 L 465,519 L 465,520 L 466,521 L 467,521 L 473,527 L 474,527 L 476,529 L 477,529 L 479,531 L 480,531 L 482,533 L 484,533 L 485,534 L 486,534 L 487,535 L 488,535 L 489,536 L 491,536 L 492,537 L 494,537 L 495,538 L 498,538 L 499,539 L 504,539 L 505,540 L 517,540 L 518,539 L 523,539 L 524,538 L 527,538 L 528,537 L 531,537 L 532,536 L 533,536 L 534,535 L 536,535 L 537,534 L 538,534 L 539,533 L 540,533 L 541,532 L 542,532 L 544,530 L 545,530 L 548,527 L 549,527 L 553,523 L 554,523 L 556,521 L 556,520 L 561,515 L 561,514 L 563,512 L 563,511 L 564,510 L 564,509 L 565,508 L 565,507 L 566,506 L 566,505 L 567,504 L 567,503 L 568,502 L 568,501 L 569,500 L 569,498 L 570,497 L 570,494 L 571,493 L 571,489 L 572,488 L 572,469 L 571,468 L 571,464 L 570,463 L 570,460 L 569,459 L 569,457 L 568,456 L 568,455 L 567,454 L 567,452 L 565,450 L 565,449 L 564,448 L 564,447 L 563,446 L 563,445 L 562,444 L 562,443 L 559,440 L 559,439 L 550,430 L 549,430 L 546,427 L 545,427 L 543,425 L 542,425 L 541,424 L 540,424 L 539,423 L 538,423 L 537,422 L 536,422 L 535,421 L 534,421 L 533,420 L 531,420 L 530,419 L 528,419 L 527,418 L 524,418 L 523,417 L 517,417 L 516,416" fill="black" /><path d="M 251,391 L 242,400 L 241,400 L 226,415 L 226,416 L 218,424 L 218,425 L 212,431 L 212,432 L 209,435 L 209,436 L 206,439 L 206,440 L 204,442 L 204,443 L 202,445 L 202,446 L 201,447 L 201,448 L 199,450 L 199,451 L 198,452 L 198,453 L 197,454 L 197,455 L 196,456 L 196,457 L 195,458 L 195,459 L 194,460 L 194,461 L 193,462 L 193,463 L 192,464 L 192,466 L 191,467 L 191,468 L 190,469 L 190,471 L 189,472 L 189,474 L 188,475 L 188,478 L 187,479 L 187,481 L 186,482 L 186,486 L 185,487 L 185,492 L 184,493 L 184,500 L 183,501 L 183,522 L 184,523 L 184,529 L 185,530 L 185,534 L 186,535 L 186,538 L 187,539 L 187,541 L 188,542 L 188,544 L 189,545 L 189,547 L 190,548 L 190,549 L 191,550 L 191,551 L 192,552 L 192,553 L 193,554 L 193,556 L 195,558 L 195,559 L 196,560 L 196,561 L 197,562 L 197,563 L 199,565 L 199,566 L 201,568 L 201,569 L 203,571 L 203,572 L 206,575 L 206,576 L 226,596 L 227,596 L 231,600 L 232,600 L 235,603 L 236,603 L 238,605 L 239,605 L 242,608 L 243,608 L 244,609 L 245,609 L 247,611 L 248,611 L 249,612 L 250,612 L 251,613 L 252,613 L 253,614 L 254,614 L 256,616 L 257,616 L 258,617 L 259,617 L 260,618 L 261,618 L 262,619 L 264,619 L 265,620 L 266,620 L 267,621 L 268,621 L 269,622 L 270,622 L 271,623 L 273,623 L 274,624 L 275,624 L 276,625 L 277,625 L 278,626 L 280,626 L 281,627 L 283,627 L 284,628 L 285,628 L 286,629 L 288,629 L 289,630 L 290,630 L 291,631 L 293,631 L 294,632 L 296,632 L 297,633 L 299,633 L 300,634 L 302,634 L 303,635 L 305,635 L 306,636 L 308,636 L 309,637 L 311,637 L 312,638 L 315,638 L 316,639 L 318,639 L 319,640 L 322,640 L 323,641 L 325,641 L 326,642 L 329,642 L 330,643 L 333,643 L 334,644 L 336,644 L 337,645 L 338,645 L 343,650 L 343,651 L 345,653 L 345,654 L 346,655 L 346,656 L 347,657 L 347,658 L 348,659 L 348,660 L 349,661 L 349,662 L 350,663 L 350,664 L 351,665 L 351,666 L 352,667 L 352,668 L 353,669 L 353,670 L 354,671 L 354,672 L 355,673 L 355,674 L 356,675 L 356,676 L 358,678 L 358,679 L 359,680 L 359,681 L 360,682 L 360,683 L 361,684 L 361,685 L 362,686 L 362,687 L 364,689 L 364,690 L 365,691 L 365,692 L 367,694 L 367,695 L 368,696 L 368,697 L 370,699 L 370,700 L 372,702 L 372,703 L 374,705 L 374,706 L 376,708 L 376,709 L 378,711 L 378,712 L 381,715 L 381,716 L 384,719 L 384,720 L 387,723 L 387,724 L 392,729 L 392,730 L 412,750 L 413,750 L 418,755 L 419,755 L 422,758 L 423,758 L 425,760 L 426,760 L 429,763 L 430,763 L 431,764 L 432,764 L 434,766 L 435,766 L 437,768 L 438,768 L 439,769 L 440,769 L 441,770 L 442,770 L 443,771 L 444,771 L 445,772 L 446,772 L 447,773 L 448,773 L 449,774 L 450,774 L 451,775 L 452,775 L 453,776 L 454,776 L 455,777 L 457,777 L 458,778 L 459,778 L 460,779 L 462,779 L 463,780 L 465,780 L 466,781 L 468,781 L 469,782 L 472,782 L 473,783 L 476,783 L 477,784 L 480,784 L 481,785 L 485,785 L 486,786 L 491,786 L 492,787 L 493,786 L 494,787 L 521,787 L 522,786 L 527,786 L 528,785 L 532,785 L 533,784 L 536,784 L 537,783 L 539,783 L 540,782 L 542,782 L 543,781 L 545,781 L 546,780 L 547,780 L 548,779 L 550,779 L 551,778 L 552,778 L 553,777 L 554,777 L 555,776 L 556,776 L 557,775 L 558,775 L 559,774 L 560,774 L 562,772 L 563,772 L 564,771 L 565,771 L 567,769 L 568,769 L 570,767 L 571,767 L 573,765 L 574,765 L 576,763 L 577,763 L 580,760 L 581,760 L 585,756 L 586,756 L 593,749 L 594,749 L 602,741 L 602,740 L 608,734 L 608,733 L 613,728 L 613,727 L 615,725 L 615,724 L 618,721 L 618,720 L 621,717 L 621,716 L 623,714 L 623,713 L 625,711 L 625,710 L 627,708 L 627,707 L 628,706 L 628,705 L 630,703 L 630,702 L 632,700 L 632,699 L 633,698 L 633,697 L 634,696 L 634,695 L 636,693 L 636,692 L 637,691 L 637,690 L 638,689 L 638,688 L 639,687 L 639,686 L 640,685 L 640,684 L 641,683 L 641,682 L 642,681 L 642,680 L 643,679 L 643,678 L 644,677 L 644,676 L 645,675 L 645,674 L 646,673 L 646,671 L 647,670 L 647,669 L 648,668 L 648,667 L 649,666 L 649,665 L 650,664 L 650,662 L 651,661 L 651,660 L 652,659 L 652,657 L 653,656 L 653,655 L 654,654 L 654,652 L 655,651 L 655,649 L 656,648 L 656,646 L 657,645 L 657,643 L 658,642 L 658,640 L 659,639 L 659,637 L 660,636 L 660,634 L 661,633 L 661,631 L 662,630 L 662,627 L 663,626 L 663,624 L 664,623 L 664,620 L 665,619 L 665,617 L 666,616 L 666,613 L 667,612 L 667,609 L 668,608 L 668,603 L 669,602 L 669,598 L 670,597 L 670,591 L 671,590 L 671,585 L 672,584 L 672,577 L 673,576 L 673,570 L 674,569 L 674,561 L 675,560 L 675,538 L 676,537 L 676,536 L 675,535 L 675,507 L 674,506 L 674,500 L 673,499 L 673,494 L 672,493 L 672,490 L 671,489 L 671,486 L 670,485 L 670,483 L 669,482 L 669,480 L 668,479 L 668,478 L 667,477 L 667,476 L 662,471 L 660,471 L 659,470 L 656,470 L 655,471 L 653,471 L 651,473 L 651,474 L 650,475 L 650,476 L 649,477 L 649,480 L 648,481 L 648,493 L 649,494 L 649,510 L 648,511 L 648,529 L 647,530 L 647,544 L 646,545 L 646,552 L 645,553 L 645,562 L 644,563 L 644,569 L 643,570 L 643,575 L 642,576 L 642,581 L 641,582 L 641,586 L 640,587 L 640,591 L 639,592 L 639,595 L 638,596 L 638,600 L 637,601 L 637,604 L 636,605 L 636,608 L 635,609 L 635,611 L 634,612 L 634,615 L 633,616 L 633,618 L 632,619 L 632,622 L 631,623 L 631,625 L 630,626 L 630,628 L 629,629 L 629,631 L 628,632 L 628,634 L 627,635 L 627,637 L 626,638 L 626,640 L 625,641 L 625,642 L 624,643 L 624,645 L 623,646 L 623,648 L 622,649 L 622,650 L 621,651 L 621,653 L 620,654 L 620,655 L 619,656 L 619,658 L 618,659 L 618,660 L 617,661 L 617,662 L 616,663 L 616,665 L 615,666 L 615,667 L 614,668 L 614,669 L 613,670 L 613,671 L 611,673 L 611,674 L 610,675 L 610,676 L 609,677 L 609,678 L 608,679 L 608,680 L 606,682 L 606,683 L 605,684 L 605,685 L 604,686 L 604,687 L 602,689 L 602,690 L 600,692 L 600,693 L 598,695 L 598,696 L 596,698 L 596,699 L 594,701 L 594,702 L 592,704 L 592,705 L 588,709 L 588,710 L 583,715 L 583,716 L 568,731 L 567,731 L 563,735 L 562,735 L 559,738 L 558,738 L 556,740 L 555,740 L 553,742 L 552,742 L 551,743 L 550,743 L 548,745 L 547,745 L 546,746 L 545,746 L 544,747 L 542,747 L 541,748 L 540,748 L 539,749 L 538,749 L 537,750 L 535,750 L 534,751 L 532,751 L 531,752 L 529,752 L 528,753 L 525,753 L 524,754 L 520,754 L 519,755 L 513,755 L 512,756 L 498,756 L 497,755 L 490,755 L 489,754 L 485,754 L 484,753 L 480,753 L 479,752 L 477,752 L 476,751 L 474,751 L 473,750 L 471,750 L 470,749 L 468,749 L 467,748 L 466,748 L 465,747 L 464,747 L 463,746 L 462,746 L 461,745 L 459,745 L 457,743 L 456,743 L 455,742 L 454,742 L 453,741 L 452,741 L 450,739 L 449,739 L 447,737 L 446,737 L 444,735 L 443,735 L 440,732 L 439,732 L 434,727 L 433,727 L 418,712 L 418,711 L 413,706 L 413,705 L 409,701 L 409,700 L 406,697 L 406,696 L 403,693 L 403,692 L 401,690 L 401,689 L 398,686 L 398,685 L 396,683 L 396,682 L 394,680 L 394,679 L 392,677 L 392,676 L 390,674 L 390,673 L 388,671 L 388,670 L 386,668 L 386,667 L 385,666 L 385,665 L 384,664 L 384,663 L 383,662 L 383,661 L 382,660 L 382,656 L 385,653 L 386,653 L 387,652 L 395,652 L 396,653 L 410,653 L 411,654 L 446,654 L 447,653 L 459,653 L 460,652 L 468,652 L 469,651 L 475,651 L 476,650 L 481,650 L 482,649 L 488,649 L 489,648 L 492,648 L 493,647 L 497,647 L 498,646 L 501,646 L 502,645 L 505,645 L 506,644 L 509,644 L 510,643 L 512,643 L 513,642 L 516,642 L 517,641 L 519,641 L 520,640 L 522,640 L 523,639 L 525,639 L 526,638 L 528,638 L 529,637 L 530,637 L 531,636 L 533,636 L 534,635 L 535,635 L 536,634 L 538,634 L 539,633 L 540,633 L 541,632 L 542,632 L 543,631 L 544,631 L 545,630 L 546,630 L 548,628 L 549,628 L 551,626 L 552,626 L 556,622 L 557,622 L 560,619 L 560,618 L 562,616 L 562,615 L 563,614 L 563,613 L 564,612 L 564,610 L 565,609 L 565,604 L 564,603 L 564,602 L 563,601 L 562,601 L 561,600 L 559,600 L 558,599 L 555,599 L 554,600 L 551,600 L 550,601 L 547,601 L 546,602 L 545,602 L 544,603 L 542,603 L 541,604 L 539,604 L 538,605 L 536,605 L 535,606 L 534,606 L 533,607 L 531,607 L 530,608 L 528,608 L 527,609 L 525,609 L 524,610 L 521,610 L 520,611 L 518,611 L 517,612 L 514,612 L 513,613 L 511,613 L 510,614 L 507,614 L 506,615 L 502,615 L 501,616 L 498,616 L 497,617 L 492,617 L 491,618 L 488,618 L 487,619 L 482,619 L 481,620 L 475,620 L 474,621 L 466,621 L 465,622 L 455,622 L 454,623 L 411,623 L 410,622 L 399,622 L 398,621 L 388,621 L 387,620 L 380,620 L 379,619 L 372,619 L 371,618 L 365,618 L 364,617 L 360,617 L 359,616 L 358,617 L 357,616 L 353,616 L 352,615 L 348,615 L 347,614 L 344,614 L 343,613 L 340,613 L 339,612 L 336,612 L 335,611 L 332,611 L 331,610 L 328,610 L 327,609 L 324,609 L 323,608 L 320,608 L 319,607 L 317,607 L 316,606 L 314,606 L 313,605 L 310,605 L 309,604 L 307,604 L 306,603 L 304,603 L 303,602 L 301,602 L 300,601 L 298,601 L 297,600 L 296,600 L 295,599 L 293,599 L 292,598 L 291,598 L 290,597 L 288,597 L 287,596 L 286,596 L 285,595 L 283,595 L 282,594 L 281,594 L 280,593 L 279,593 L 278,592 L 277,592 L 276,591 L 275,591 L 274,590 L 273,590 L 272,589 L 271,589 L 270,588 L 269,588 L 268,587 L 267,587 L 266,586 L 265,586 L 264,585 L 263,585 L 261,583 L 260,583 L 258,581 L 257,581 L 255,579 L 254,579 L 252,577 L 251,577 L 247,573 L 246,573 L 232,559 L 232,558 L 229,555 L 229,554 L 227,552 L 227,551 L 225,549 L 225,548 L 224,547 L 224,546 L 223,545 L 223,544 L 222,543 L 222,542 L 221,541 L 221,540 L 220,539 L 220,538 L 219,537 L 219,535 L 218,534 L 218,532 L 217,531 L 217,529 L 216,528 L 216,526 L 215,525 L 215,521 L 214,520 L 214,515 L 213,514 L 213,504 L 214,503 L 214,498 L 215,497 L 215,492 L 216,491 L 216,489 L 217,488 L 217,485 L 218,484 L 218,482 L 219,481 L 219,480 L 220,479 L 220,477 L 221,476 L 221,475 L 222,474 L 222,473 L 223,472 L 223,471 L 224,470 L 224,469 L 225,468 L 225,467 L 226,466 L 226,465 L 228,463 L 228,462 L 229,461 L 229,460 L 232,457 L 232,456 L 234,454 L 234,453 L 238,449 L 238,448 L 242,444 L 242,443 L 251,434 L 251,433 L 260,424 L 260,420 L 259,419 L 259,416 L 258,415 L 258,413 L 257,412 L 257,409 L 256,408 L 256,406 L 255,405 L 255,402 L 254,401 L 254,398 L 253,397 L 253,395 L 252,394 L 252,391" fill="black" /><path d="M 623,192 L 622,193 L 616,193 L 615,194 L 610,194 L 609,195 L 605,195 L 604,196 L 601,196 L 600,197 L 597,197 L 596,198 L 594,198 L 593,199 L 591,199 L 590,200 L 587,200 L 586,201 L 585,201 L 584,202 L 582,202 L 581,203 L 579,203 L 578,204 L 576,204 L 575,205 L 574,205 L 573,206 L 571,206 L 570,207 L 569,207 L 568,208 L 566,208 L 565,209 L 564,209 L 563,210 L 562,210 L 561,211 L 559,211 L 558,212 L 557,212 L 556,213 L 555,213 L 554,214 L 553,214 L 552,215 L 551,215 L 550,216 L 549,216 L 548,217 L 547,217 L 546,218 L 545,218 L 544,219 L 543,219 L 542,220 L 541,220 L 540,221 L 539,221 L 537,223 L 536,223 L 535,224 L 534,224 L 533,225 L 532,225 L 530,227 L 529,227 L 528,228 L 527,228 L 525,230 L 524,230 L 523,231 L 522,231 L 520,233 L 519,233 L 517,235 L 516,235 L 515,236 L 514,236 L 512,238 L 511,238 L 509,240 L 508,240 L 506,242 L 505,242 L 503,244 L 502,244 L 500,246 L 499,246 L 497,248 L 496,248 L 493,251 L 492,251 L 489,254 L 488,254 L 485,257 L 484,257 L 481,260 L 480,260 L 476,264 L 475,264 L 471,268 L 470,268 L 464,274 L 463,274 L 457,280 L 456,280 L 448,288 L 447,288 L 417,318 L 417,319 L 409,327 L 409,328 L 403,334 L 403,335 L 398,340 L 398,341 L 393,346 L 393,347 L 389,351 L 389,352 L 385,356 L 385,357 L 382,360 L 382,361 L 380,363 L 380,364 L 377,367 L 377,368 L 375,370 L 375,371 L 373,373 L 373,374 L 371,376 L 371,377 L 370,378 L 370,379 L 368,381 L 368,383 L 367,384 L 367,385 L 366,386 L 366,388 L 365,389 L 365,391 L 364,392 L 364,406 L 365,407 L 365,409 L 366,410 L 366,411 L 367,412 L 367,413 L 369,415 L 370,415 L 372,417 L 377,417 L 378,416 L 379,416 L 380,415 L 381,415 L 384,412 L 384,411 L 387,408 L 387,407 L 389,405 L 389,404 L 392,401 L 392,400 L 394,398 L 394,397 L 397,394 L 397,393 L 399,391 L 399,390 L 402,387 L 402,386 L 405,383 L 405,382 L 408,379 L 408,378 L 411,375 L 411,374 L 415,370 L 415,369 L 419,365 L 419,364 L 424,359 L 424,358 L 431,351 L 431,350 L 443,338 L 443,337 L 460,320 L 461,320 L 472,309 L 473,309 L 480,302 L 481,302 L 487,296 L 488,296 L 492,292 L 493,292 L 497,288 L 498,288 L 501,285 L 502,285 L 506,281 L 507,281 L 510,278 L 511,278 L 513,276 L 514,276 L 517,273 L 518,273 L 520,271 L 521,271 L 523,269 L 524,269 L 526,267 L 527,267 L 529,265 L 530,265 L 531,264 L 532,264 L 534,262 L 535,262 L 536,261 L 537,261 L 539,259 L 540,259 L 541,258 L 542,258 L 544,256 L 545,256 L 546,255 L 547,255 L 548,254 L 549,254 L 550,253 L 551,253 L 553,251 L 554,251 L 555,250 L 556,250 L 557,249 L 558,249 L 559,248 L 560,248 L 561,247 L 562,247 L 563,246 L 564,246 L 565,245 L 566,245 L 567,244 L 568,244 L 569,243 L 570,243 L 571,242 L 572,242 L 573,241 L 575,241 L 576,240 L 577,240 L 578,239 L 579,239 L 580,238 L 581,238 L 582,237 L 584,237 L 585,236 L 587,236 L 588,235 L 589,235 L 590,234 L 592,234 L 593,233 L 595,233 L 596,232 L 598,232 L 599,231 L 601,231 L 602,230 L 604,230 L 605,229 L 607,229 L 608,228 L 611,228 L 612,227 L 616,227 L 617,226 L 622,226 L 623,225 L 656,225 L 657,226 L 663,226 L 664,227 L 667,227 L 668,228 L 670,228 L 671,229 L 673,229 L 674,230 L 676,230 L 677,231 L 678,231 L 679,232 L 681,232 L 682,233 L 683,233 L 684,234 L 685,234 L 686,235 L 687,235 L 688,236 L 689,236 L 691,238 L 692,238 L 695,241 L 696,241 L 708,253 L 708,254 L 711,257 L 711,258 L 713,260 L 713,261 L 715,263 L 715,264 L 717,266 L 717,267 L 718,268 L 718,269 L 719,270 L 719,271 L 720,272 L 720,274 L 721,275 L 721,276 L 722,277 L 722,278 L 723,279 L 723,281 L 724,282 L 724,284 L 725,285 L 725,288 L 726,289 L 726,292 L 727,293 L 727,297 L 728,298 L 728,304 L 729,305 L 729,323 L 728,324 L 728,331 L 727,332 L 727,336 L 726,337 L 726,340 L 725,341 L 725,344 L 724,345 L 724,347 L 723,348 L 723,351 L 722,352 L 722,354 L 721,355 L 721,357 L 720,358 L 720,360 L 719,361 L 719,363 L 718,364 L 718,366 L 717,367 L 717,369 L 716,370 L 716,371 L 715,372 L 715,373 L 714,374 L 713,374 L 712,375 L 707,375 L 706,374 L 705,374 L 704,373 L 703,373 L 702,372 L 701,372 L 700,371 L 699,371 L 697,369 L 696,369 L 695,368 L 694,368 L 693,367 L 692,367 L 691,366 L 690,366 L 689,365 L 688,365 L 687,364 L 686,364 L 685,363 L 684,363 L 683,362 L 682,362 L 681,361 L 680,361 L 679,360 L 678,360 L 677,359 L 675,359 L 674,358 L 673,358 L 672,357 L 671,357 L 670,356 L 669,356 L 668,355 L 666,355 L 665,354 L 664,354 L 663,353 L 661,353 L 660,352 L 658,352 L 657,351 L 656,351 L 655,350 L 653,350 L 652,349 L 651,349 L 650,348 L 648,348 L 647,347 L 645,347 L 644,346 L 642,346 L 641,345 L 639,345 L 638,344 L 637,344 L 636,343 L 634,343 L 633,342 L 630,342 L 629,341 L 628,341 L 627,340 L 624,340 L 623,339 L 620,339 L 619,338 L 616,338 L 615,337 L 611,337 L 610,336 L 607,336 L 606,335 L 602,335 L 601,334 L 596,334 L 595,333 L 589,333 L 588,332 L 581,332 L 580,331 L 546,331 L 545,332 L 539,332 L 538,333 L 534,333 L 533,334 L 530,334 L 529,335 L 527,335 L 526,336 L 525,336 L 524,337 L 522,337 L 520,339 L 519,339 L 518,340 L 517,340 L 511,346 L 511,347 L 510,348 L 510,349 L 509,350 L 509,356 L 511,358 L 512,358 L 513,359 L 516,359 L 517,360 L 518,359 L 536,359 L 537,358 L 557,358 L 558,359 L 570,359 L 571,360 L 578,360 L 579,361 L 584,361 L 585,362 L 590,362 L 591,363 L 595,363 L 596,364 L 599,364 L 600,365 L 603,365 L 604,366 L 607,366 L 608,367 L 611,367 L 612,368 L 614,368 L 615,369 L 617,369 L 618,370 L 620,370 L 621,371 L 623,371 L 624,372 L 626,372 L 627,373 L 629,373 L 630,374 L 631,374 L 632,375 L 634,375 L 635,376 L 636,376 L 637,377 L 639,377 L 640,378 L 641,378 L 642,379 L 644,379 L 645,380 L 646,380 L 647,381 L 648,381 L 649,382 L 651,382 L 652,383 L 653,383 L 654,384 L 655,384 L 656,385 L 658,385 L 659,386 L 660,386 L 661,387 L 662,387 L 663,388 L 664,388 L 665,389 L 666,389 L 667,390 L 668,390 L 669,391 L 670,391 L 671,392 L 672,392 L 673,393 L 674,393 L 675,394 L 676,394 L 677,395 L 678,395 L 679,396 L 680,396 L 681,397 L 682,397 L 683,398 L 684,398 L 686,400 L 687,400 L 688,401 L 689,401 L 690,402 L 691,402 L 692,403 L 693,403 L 695,405 L 696,405 L 697,406 L 698,406 L 700,408 L 701,408 L 702,409 L 703,409 L 705,411 L 706,411 L 708,413 L 709,413 L 711,415 L 712,415 L 714,417 L 715,417 L 717,419 L 718,419 L 720,421 L 721,421 L 723,423 L 724,423 L 727,426 L 728,426 L 730,428 L 731,428 L 734,431 L 735,431 L 739,435 L 740,435 L 745,440 L 746,440 L 759,453 L 760,453 L 763,456 L 763,457 L 772,466 L 772,467 L 777,472 L 777,473 L 780,476 L 780,477 L 782,479 L 782,480 L 784,482 L 784,483 L 785,484 L 785,485 L 787,487 L 787,488 L 788,489 L 788,490 L 789,491 L 789,492 L 790,493 L 790,494 L 791,495 L 791,496 L 792,497 L 792,498 L 793,499 L 793,501 L 794,502 L 794,503 L 795,504 L 795,506 L 796,507 L 796,509 L 797,510 L 797,513 L 798,514 L 798,517 L 799,518 L 799,524 L 800,525 L 800,531 L 799,532 L 799,539 L 798,540 L 798,545 L 797,546 L 797,549 L 796,550 L 796,552 L 795,553 L 795,555 L 794,556 L 794,558 L 793,559 L 793,561 L 792,562 L 792,563 L 791,564 L 791,566 L 790,567 L 790,568 L 789,569 L 789,570 L 788,571 L 788,572 L 787,573 L 787,574 L 785,576 L 785,577 L 783,579 L 783,580 L 781,582 L 781,583 L 777,587 L 777,588 L 765,600 L 764,600 L 761,603 L 760,603 L 757,606 L 756,606 L 754,608 L 753,608 L 752,609 L 751,609 L 749,611 L 748,611 L 747,612 L 746,612 L 745,613 L 744,613 L 743,614 L 742,614 L 741,615 L 740,615 L 739,616 L 738,616 L 737,617 L 736,617 L 735,618 L 734,618 L 733,619 L 732,619 L 731,620 L 729,620 L 728,621 L 727,621 L 726,622 L 724,622 L 723,623 L 722,623 L 721,624 L 719,624 L 718,625 L 716,625 L 715,626 L 713,626 L 712,627 L 710,627 L 709,628 L 707,628 L 706,629 L 703,629 L 702,630 L 700,630 L 699,631 L 696,631 L 695,632 L 693,632 L 692,633 L 690,633 L 689,634 L 687,634 L 686,635 L 685,635 L 682,638 L 682,639 L 681,640 L 681,642 L 680,643 L 680,645 L 679,646 L 679,648 L 678,649 L 678,652 L 677,653 L 677,655 L 676,656 L 676,658 L 675,659 L 675,661 L 674,662 L 674,663 L 673,664 L 673,665 L 675,665 L 676,664 L 682,664 L 683,663 L 688,663 L 689,662 L 693,662 L 694,661 L 698,661 L 699,660 L 702,660 L 703,659 L 706,659 L 707,658 L 710,658 L 711,657 L 714,657 L 715,656 L 717,656 L 718,655 L 721,655 L 722,654 L 724,654 L 725,653 L 727,653 L 728,652 L 730,652 L 731,651 L 733,651 L 734,650 L 735,650 L 736,649 L 738,649 L 739,648 L 740,648 L 741,647 L 743,647 L 744,646 L 745,646 L 746,645 L 747,645 L 748,644 L 749,644 L 750,643 L 752,643 L 753,642 L 754,642 L 755,641 L 756,641 L 757,640 L 758,640 L 760,638 L 761,638 L 762,637 L 763,637 L 764,636 L 765,636 L 766,635 L 767,635 L 769,633 L 770,633 L 772,631 L 773,631 L 774,630 L 775,630 L 778,627 L 779,627 L 781,625 L 782,625 L 785,622 L 786,622 L 790,618 L 791,618 L 803,606 L 803,605 L 806,602 L 806,601 L 808,599 L 808,598 L 810,596 L 810,595 L 812,593 L 812,592 L 813,591 L 813,590 L 814,589 L 814,588 L 816,586 L 816,585 L 817,584 L 817,583 L 818,582 L 818,581 L 819,580 L 819,579 L 820,578 L 820,576 L 821,575 L 821,574 L 822,573 L 822,572 L 823,571 L 823,569 L 824,568 L 824,566 L 825,565 L 825,563 L 826,562 L 826,559 L 827,558 L 827,556 L 828,555 L 828,551 L 829,550 L 829,546 L 830,545 L 830,537 L 831,536 L 831,524 L 830,523 L 830,513 L 829,512 L 829,509 L 828,508 L 828,504 L 827,503 L 827,500 L 826,499 L 826,496 L 825,495 L 825,494 L 824,493 L 824,491 L 823,490 L 823,488 L 822,487 L 822,486 L 821,485 L 821,483 L 820,482 L 820,481 L 819,480 L 819,479 L 818,478 L 818,477 L 817,476 L 817,475 L 816,474 L 816,473 L 814,471 L 814,470 L 813,469 L 813,468 L 811,466 L 811,465 L 810,464 L 810,463 L 808,461 L 808,460 L 805,457 L 805,456 L 802,453 L 802,452 L 798,448 L 798,447 L 791,440 L 791,439 L 782,430 L 781,430 L 772,421 L 771,421 L 766,416 L 765,416 L 760,411 L 759,411 L 756,408 L 755,408 L 751,404 L 750,404 L 747,401 L 746,401 L 742,397 L 742,396 L 741,395 L 741,390 L 742,389 L 742,388 L 743,387 L 743,385 L 744,384 L 744,383 L 745,382 L 745,380 L 746,379 L 746,378 L 747,377 L 747,375 L 748,374 L 748,373 L 749,372 L 749,370 L 750,369 L 750,367 L 751,366 L 751,364 L 752,363 L 752,360 L 753,359 L 753,357 L 754,356 L 754,353 L 755,352 L 755,349 L 756,348 L 756,345 L 757,344 L 757,340 L 758,339 L 758,333 L 759,332 L 759,296 L 758,295 L 758,287 L 757,286 L 757,282 L 756,281 L 756,278 L 755,277 L 755,274 L 754,273 L 754,271 L 753,270 L 753,268 L 752,267 L 752,265 L 751,264 L 751,263 L 750,262 L 750,260 L 749,259 L 749,258 L 748,257 L 748,255 L 747,254 L 747,253 L 745,251 L 745,250 L 744,249 L 744,248 L 743,247 L 743,246 L 741,244 L 741,243 L 740,242 L 740,241 L 737,238 L 737,237 L 734,234 L 734,233 L 728,227 L 728,226 L 725,223 L 724,223 L 717,216 L 716,216 L 714,214 L 713,214 L 711,212 L 710,212 L 708,210 L 707,210 L 706,209 L 705,209 L 704,208 L 703,208 L 702,207 L 701,207 L 700,206 L 699,206 L 698,205 L 697,205 L 696,204 L 695,204 L 694,203 L 692,203 L 691,202 L 689,202 L 688,201 L 687,201 L 686,200 L 684,200 L 683,199 L 681,199 L 680,198 L 677,198 L 676,197 L 673,197 L 672,196 L 670,196 L 669,195 L 665,195 L 664,194 L 660,194 L 659,193 L 651,193 L 650,192" fill="black" /><path d="M 367,192 L 366,193 L 358,193 L 357,194 L 352,194 L 351,195 L 348,195 L 347,196 L 344,196 L 343,197 L 341,197 L 340,198 L 338,198 L 337,199 L 335,199 L 334,200 L 333,200 L 332,201 L 330,201 L 329,202 L 328,202 L 327,203 L 326,203 L 325,204 L 324,204 L 323,205 L 322,205 L 321,206 L 320,206 L 318,208 L 317,208 L 315,210 L 314,210 L 313,211 L 312,211 L 309,214 L 308,214 L 305,217 L 304,217 L 298,223 L 297,223 L 296,224 L 296,225 L 286,235 L 286,236 L 283,239 L 283,240 L 280,243 L 280,244 L 279,245 L 279,246 L 277,248 L 277,249 L 276,250 L 276,251 L 274,253 L 274,254 L 273,255 L 273,256 L 272,257 L 272,258 L 271,259 L 271,260 L 270,261 L 270,263 L 269,264 L 269,265 L 268,266 L 268,268 L 267,269 L 267,270 L 266,271 L 266,273 L 265,274 L 265,276 L 264,277 L 264,280 L 263,281 L 263,284 L 262,285 L 262,289 L 261,290 L 261,299 L 260,300 L 260,341 L 261,342 L 261,350 L 262,351 L 262,355 L 263,356 L 263,360 L 264,361 L 264,364 L 265,365 L 265,368 L 266,369 L 266,372 L 267,373 L 267,375 L 268,376 L 268,378 L 269,379 L 269,382 L 270,383 L 270,385 L 271,386 L 271,389 L 272,390 L 272,392 L 273,393 L 273,395 L 274,396 L 274,398 L 275,399 L 275,401 L 276,402 L 276,404 L 277,405 L 277,407 L 278,408 L 278,409 L 279,410 L 279,412 L 280,413 L 280,414 L 281,415 L 281,416 L 282,417 L 282,419 L 283,420 L 283,421 L 284,422 L 284,423 L 285,424 L 285,425 L 286,426 L 286,427 L 287,428 L 287,429 L 288,430 L 288,432 L 289,433 L 289,434 L 290,435 L 290,436 L 291,437 L 291,438 L 292,439 L 292,440 L 293,441 L 293,442 L 294,443 L 294,444 L 296,446 L 296,447 L 297,448 L 297,449 L 298,450 L 298,451 L 299,452 L 299,453 L 300,454 L 300,455 L 302,457 L 302,458 L 303,459 L 303,460 L 304,461 L 304,462 L 306,464 L 306,465 L 307,466 L 307,467 L 309,469 L 309,470 L 311,472 L 311,473 L 312,474 L 312,475 L 314,477 L 314,478 L 316,480 L 316,481 L 318,483 L 318,484 L 320,486 L 320,487 L 322,489 L 322,490 L 324,492 L 324,493 L 327,496 L 327,497 L 329,499 L 329,500 L 333,504 L 333,505 L 336,508 L 336,509 L 341,514 L 341,515 L 349,523 L 349,524 L 357,532 L 357,533 L 378,554 L 379,554 L 382,557 L 383,557 L 385,559 L 386,559 L 387,560 L 388,560 L 389,561 L 390,561 L 391,562 L 393,562 L 394,563 L 397,563 L 398,564 L 407,564 L 408,563 L 409,563 L 410,562 L 411,562 L 413,560 L 413,559 L 414,558 L 414,556 L 415,555 L 415,554 L 414,553 L 414,550 L 413,549 L 413,547 L 412,546 L 412,545 L 410,543 L 410,542 L 402,534 L 401,534 L 392,525 L 392,524 L 377,509 L 377,508 L 371,502 L 371,501 L 366,496 L 366,495 L 362,491 L 362,490 L 358,486 L 358,485 L 355,482 L 355,481 L 352,478 L 352,477 L 350,475 L 350,474 L 347,471 L 347,470 L 345,468 L 345,467 L 343,465 L 343,464 L 341,462 L 341,461 L 338,458 L 338,457 L 337,456 L 337,455 L 335,453 L 335,452 L 333,450 L 333,449 L 332,448 L 332,447 L 330,445 L 330,444 L 329,443 L 329,442 L 328,441 L 328,440 L 326,438 L 326,437 L 325,436 L 325,435 L 324,434 L 324,433 L 323,432 L 323,431 L 322,430 L 322,429 L 321,428 L 321,427 L 320,426 L 320,425 L 319,424 L 319,422 L 318,421 L 318,420 L 317,419 L 317,418 L 316,417 L 316,416 L 315,415 L 315,414 L 314,413 L 314,412 L 313,411 L 313,409 L 312,408 L 312,407 L 311,406 L 311,405 L 310,404 L 310,402 L 309,401 L 309,400 L 308,399 L 308,397 L 307,396 L 307,395 L 306,394 L 306,392 L 305,391 L 305,389 L 304,388 L 304,386 L 303,385 L 303,383 L 302,382 L 302,380 L 301,379 L 301,377 L 300,376 L 300,375 L 299,374 L 299,371 L 298,370 L 298,368 L 297,367 L 297,364 L 296,363 L 296,359 L 295,358 L 295,353 L 294,352 L 294,348 L 293,347 L 293,341 L 292,340 L 292,334 L 291,333 L 291,301 L 292,300 L 292,293 L 293,292 L 293,288 L 294,287 L 294,283 L 295,282 L 295,281 L 296,280 L 296,279 L 297,278 L 297,276 L 298,275 L 298,274 L 299,273 L 299,272 L 300,271 L 300,270 L 302,268 L 302,267 L 303,266 L 303,265 L 305,263 L 305,262 L 308,259 L 308,258 L 311,255 L 311,254 L 323,242 L 324,242 L 327,239 L 328,239 L 330,237 L 331,237 L 333,235 L 334,235 L 335,234 L 336,234 L 337,233 L 338,233 L 339,232 L 341,232 L 342,231 L 343,231 L 344,230 L 346,230 L 347,229 L 349,229 L 350,228 L 353,228 L 354,227 L 357,227 L 358,226 L 364,226 L 365,225 L 399,225 L 400,226 L 405,226 L 406,227 L 410,227 L 411,228 L 414,228 L 415,229 L 418,229 L 419,230 L 422,230 L 423,231 L 425,231 L 426,232 L 428,232 L 429,233 L 431,233 L 432,234 L 434,234 L 435,235 L 437,235 L 438,236 L 440,236 L 441,237 L 443,237 L 444,238 L 445,238 L 446,239 L 448,239 L 449,240 L 451,240 L 452,241 L 453,241 L 454,242 L 456,242 L 457,243 L 459,243 L 460,244 L 464,244 L 465,243 L 466,243 L 471,238 L 472,238 L 477,233 L 478,233 L 484,227 L 485,227 L 488,224 L 488,223 L 487,223 L 486,222 L 485,222 L 484,221 L 483,221 L 481,219 L 480,219 L 479,218 L 478,218 L 477,217 L 476,217 L 475,216 L 474,216 L 473,215 L 472,215 L 471,214 L 470,214 L 469,213 L 467,213 L 466,212 L 465,212 L 464,211 L 463,211 L 462,210 L 460,210 L 459,209 L 458,209 L 457,208 L 456,208 L 455,207 L 453,207 L 452,206 L 450,206 L 449,205 L 448,205 L 447,204 L 445,204 L 444,203 L 442,203 L 441,202 L 439,202 L 438,201 L 435,201 L 434,200 L 432,200 L 431,199 L 428,199 L 427,198 L 424,198 L 423,197 L 420,197 L 419,196 L 415,196 L 414,195 L 409,195 L 408,194 L 403,194 L 402,193 L 395,193 L 394,192" fill="black" /></svg>